<svg xmlns="http://www.w3.org/2000/svg" viewBox="0 0 64 64" width="64" height="64">
  <defs>
    <linearGradient id="goldBorder" x1="0%" y1="0%" x2="100%" y2="100%">
      <stop offset="0%" stop-color="#e5dec9" stop-opacity="0.8"/>
      <stop offset="50%" stop-color="#a65a44" stop-opacity="0.95"/>
      <stop offset="100%" stop-color="#e5dec9" stop-opacity="0.7"/>
    </linearGradient>
  </defs>
  <!-- Obsidian Slate Rounded Background -->
  <rect width="64" height="64" rx="15" fill="#09090a"/>
  <rect x="1.5" y="1.5" width="61" height="61" rx="13.5" fill="none" stroke="url(#goldBorder)" stroke-width="1.5"/>
  
  <!-- Bodoni 'N' Monogram -->
  <g fill="#f5f3ef">
    <!-- Left Stem and Serifs -->
    <path d="M 14 16.5 L 24 16.5 L 24 19 L 20.5 19 L 20.5 45 L 24 45 L 24 47.5 L 14 47.5 L 14 45 L 17.5 45 L 17.5 19 L 14 19 Z"/>
    <!-- Bold Diagonal -->
    <path d="M 17.5 16.5 L 24 16.5 L 43.5 45 L 43.5 47.5 L 37 47.5 L 17.5 19 Z"/>
    <!-- Right Stem and Serifs -->
    <path d="M 40.5 16.5 L 48 16.5 L 48 19 L 45 19 L 45 45 L 48 45 L 48 47.5 L 42 47.5 L 42 45 L 43.5 45 L 43.5 19 L 40.5 19 Z"/>
  </g>
  <!-- Haute-Gastronomie Copper Accent Dot -->
  <circle cx="50.5" cy="46" r="2.5" fill="#a65a44"/>
</svg>
